{"title":"Impractical.Jokers.S03E02.The.Great.Escape.WEB-DLx264-JIVE","uid":9462252,"size":113919355,"categoryP":"video","categoryS":"tv_shows","magnet":"?xt=urn:btih:97b827a12819963f4a53aa5114786e11685e0360&amp;dn=Impractical.Jokers.S03E02.The.Great.Escape.WEB-DLx264-JIVE&amp;tr=udp%3A%2F%2Ftracker.openbittorrent.com%3A80&amp;tr=udp%3A%2F%2Fopen.demonii.com%3A1337&amp;tr=udp%3A%2F%2Ftracker.coppersurfer.tk%3A6969&amp;tr=udp%3A%2F%2Fexodus.desync.com%3A6969","seeders":7,"leechers":0,"uploader":"fiddy01604","files":1,"time":1389375541,"description":"Screenshots\n\n\nMedia info\n\nFormat : MPEG-4\nFormat profile : Base Media\nCodec ID : isom\nFile size : 109 MiB\nDuration : 21mn 41s\nOverall bit rate : 700 Kbps\nWriting application : Lavf53.21.0\n\nVideo\nID : 1\nFormat : AVC\nFormat/Info : Advanced Video Codec\nFormat profile : &lt;a class=&quot;__cf_email__&quot; href=&quot;/cdn-cgi/l/email-protection&quot; data-cfemail=&quot;024f636b6c424e362c32&quot;&gt;[email&amp;#160;protected]&lt;/a&gt;&lt;script cf-hash='f9e31' type=&quot;text/javascript&quot;&gt;\n/* &lt;![CDATA[ */!function(){try{var t=&quot;currentScript&quot;in document?document.currentScript:function(){for(var t=document.getElementsByTagName(&quot;script&quot;),e=t.length;e--;)if(t[e].getAttribute(&quot;cf-hash&quot;))return t[e]}();if(t&amp;&amp;t.previousSibling){var e,r,n,i,c=t.previousSibling,a=c.getAttribute(&quot;data-cfemail&quot;);if(a){for(e=&quot;&quot;,r=parseInt(a.substr(0,2),16),n=2;a.length-n;n+=2)i=parseInt(a.substr(n,2),16)^r,e+=String.fromCharCode(i);e=document.createTextNode(e),c.parentNode.replaceChild(e,c)}}}catch(u){}}();/* ]]&gt; */&lt;/script&gt;\nFormat settings, CABAC : Yes\nFormat settings, ReFrames : 2 frames\nCodec ID : avc1\nCodec ID/Info : Advanced Video Coding\nDuration : 21mn 41s\nBit rate : 501 Kbps\nWidth : 640 pixels\nHeight : 360 pixels\nDisplay aspect ratio : 16:9\nFrame rate mode : Variable\nFrame rate : 29.970 fps\nMinimum frame rate : 29.412 fps\nMaximum frame rate : 30.303 fps\nStandard : NTSC\nColor space : YUV\nChroma subsampling : 4:2:0\nBit depth : 8 bits\nScan type : Progressive\nBits/(Pixel*Frame) : 0.073\nStream size : 77.8 MiB (72%)\n\nAudio\nID : 2\nFormat : AAC\nFormat/Info : Advanced Audio Codec\nFormat profile : LC\nCodec ID : 40\nDuration : 21mn 41s\nBit rate mode : Constant\nBit rate : 192 Kbps\nChannel count : 2 channels\nChannel positions : Front: L R\nSampling rate : 48.0 KHz\nCompression mode : Lossy\nStream size : 29.4 MiB (27%)\n\n","torrent":{"xt":"urn:btih:97b827a12819963f4a53aa5114786e11685e0360","amp;dn":"Impractical.Jokers.S03E02.The.Great.Escape.WEB-DLx264-JIVE","amp;tr":["udp%3A%2F%2Ftracker.openbittorrent.com%3A80","udp%3A%2F%2Fopen.demonii.com%3A1337","udp%3A%2F%2Ftracker.coppersurfer.tk%3A6969","udp%3A%2F%2Fexodus.desync.com%3A6969"],"infoHash":"97b827a12819963f4a53aa5114786e11685e0360","infoHashBuffer":{"type":"Buffer","data":[151,184,39,161,40,25,150,63,74,83,170,81,20,120,110,17,104,94,3,96]},"announce":[],"urlList":[]}}